<svg xmlns="http://www.w3.org/2000/svg" xmlns:xlink="http://www.w3.org/1999/xlink" width="200" zoomAndPan="magnify" viewBox="0 0 150 44.999999" height="60" preserveAspectRatio="xMidYMid meet" version="1.0"><defs><g/></defs><g fill="#ce7a58" fill-opacity="1"><g transform="translate(1.877677, 35.913208)"><g><path d="M 18.484375 -5.21875 C 18.972656 -5.21875 19.335938 -5.03125 19.578125 -4.65625 C 19.828125 -4.289062 19.953125 -3.890625 19.953125 -3.453125 C 19.953125 -2.910156 19.867188 -2.53125 19.703125 -2.3125 C 19.535156 -2.101562 19.21875 -1.882812 18.75 -1.65625 C 17.675781 -1.132812 16.347656 -0.722656 14.765625 -0.421875 C 13.179688 -0.117188 11.484375 0.03125 9.671875 0.03125 C 7.390625 0.03125 5.71875 -0.347656 4.65625 -1.109375 C 3.59375 -1.878906 2.941406 -2.804688 2.703125 -3.890625 C 2.460938 -4.984375 2.34375 -6.410156 2.34375 -8.171875 C 2.34375 -10.066406 2.414062 -11.925781 2.5625 -13.75 C 2.71875 -15.582031 2.988281 -17.914062 3.375 -20.75 C 3.550781 -21.976562 4.035156 -22.867188 4.828125 -23.421875 C 5.617188 -23.972656 6.488281 -24.25 7.4375 -24.25 C 8.226562 -24.25 9.519531 -24.269531 11.3125 -24.3125 L 14.65625 -24.359375 C 16.03125 -24.359375 17.023438 -24.320312 17.640625 -24.25 C 18.410156 -24.09375 18.976562 -23.914062 19.34375 -23.71875 C 19.71875 -23.53125 19.90625 -23.207031 19.90625 -22.75 C 19.90625 -22.238281 19.734375 -21.738281 19.390625 -21.25 C 19.046875 -20.757812 18.53125 -20.515625 17.84375 -20.515625 C 17.039062 -20.515625 15.898438 -20.566406 14.421875 -20.671875 C 12.941406 -20.773438 11.828125 -20.828125 11.078125 -20.828125 C 10.441406 -20.828125 9.816406 -20.789062 9.203125 -20.71875 C 8.484375 -20.664062 7.972656 -20.570312 7.671875 -20.4375 C 7.367188 -20.3125 7.191406 -20.097656 7.140625 -19.796875 C 6.773438 -17.160156 6.59375 -15.21875 6.59375 -13.96875 C 7.1875 -13.882812 7.765625 -13.84375 8.328125 -13.84375 C 9.035156 -13.84375 9.800781 -13.878906 10.625 -13.953125 C 11.445312 -14.035156 11.972656 -14.085938 12.203125 -14.109375 C 13.554688 -14.242188 14.71875 -14.3125 15.6875 -14.3125 C 16.25 -14.3125 16.675781 -14.207031 16.96875 -14 C 17.269531 -13.789062 17.421875 -13.507812 17.421875 -13.15625 C 17.421875 -12.59375 17.269531 -12.15625 16.96875 -11.84375 C 16.675781 -11.539062 16.160156 -11.3125 15.421875 -11.15625 C 14.523438 -10.976562 13.414062 -10.835938 12.09375 -10.734375 C 10.78125 -10.640625 9.5 -10.59375 8.25 -10.59375 C 7.8125 -10.59375 7.207031 -10.613281 6.4375 -10.65625 C 6.363281 -9.101562 6.328125 -7.660156 6.328125 -6.328125 C 6.328125 -4.515625 7.53125 -3.609375 9.9375 -3.609375 C 11.21875 -3.609375 12.28125 -3.695312 13.125 -3.875 C 13.96875 -4.050781 14.9375 -4.304688 16.03125 -4.640625 C 17.050781 -5.023438 17.867188 -5.21875 18.484375 -5.21875 Z M 18.484375 -5.21875 "/></g></g></g><g fill="#ce7a58" fill-opacity="1"><g transform="translate(23.049863, 35.913208)"><g><path d="M 17.34375 -24.015625 C 17.34375 -23.753906 17.273438 -23.050781 17.140625 -21.90625 C 16.859375 -19.09375 16.71875 -16.238281 16.71875 -13.34375 C 16.71875 -10.8125 16.753906 -8.878906 16.828125 -7.546875 C 16.910156 -6.222656 17.101562 -5.207031 17.40625 -4.5 C 17.71875 -3.800781 18.191406 -3.453125 18.828125 -3.453125 C 20.054688 -3.453125 20.671875 -3.039062 20.671875 -2.21875 C 20.671875 -1.6875 20.398438 -1.234375 19.859375 -0.859375 C 19.328125 -0.492188 18.742188 -0.3125 18.109375 -0.3125 C 17.335938 -0.3125 16.617188 -0.488281 15.953125 -0.84375 C 15.285156 -1.195312 14.765625 -1.75 14.390625 -2.5 C 13.847656 -1.695312 13.070312 -1.0625 12.0625 -0.59375 C 11.050781 -0.125 10.070312 0.109375 9.125 0.109375 C 7.664062 0.109375 6.375 -0.191406 5.25 -0.796875 C 4.125 -1.410156 3.253906 -2.25 2.640625 -3.3125 C 2.023438 -4.375 1.71875 -5.546875 1.71875 -6.828125 C 1.71875 -8.054688 1.863281 -9.238281 2.15625 -10.375 C 2.457031 -11.507812 2.863281 -12.453125 3.375 -13.203125 C 4.0625 -14.171875 4.988281 -14.941406 6.15625 -15.515625 C 7.320312 -16.085938 8.46875 -16.375 9.59375 -16.375 C 10.28125 -16.375 10.929688 -16.238281 11.546875 -15.96875 C 12.160156 -15.707031 12.695312 -15.382812 13.15625 -15 C 13.15625 -16.707031 13.144531 -17.78125 13.125 -18.21875 L 13.125 -19.03125 C 13.125 -21.40625 13.273438 -23.144531 13.578125 -24.25 C 13.859375 -25.320312 14.535156 -25.859375 15.609375 -25.859375 C 16.203125 -25.859375 16.640625 -25.726562 16.921875 -25.46875 C 17.203125 -25.21875 17.34375 -24.734375 17.34375 -24.015625 Z M 5.53125 -6.90625 C 5.53125 -5.726562 5.867188 -4.78125 6.546875 -4.0625 C 7.222656 -3.34375 8.03125 -2.984375 8.96875 -2.984375 C 10.332031 -2.984375 11.335938 -3.40625 11.984375 -4.25 C 12.640625 -5.101562 12.96875 -6.191406 12.96875 -7.515625 L 12.921875 -11.3125 C 11.929688 -12.414062 10.894531 -12.96875 9.8125 -12.96875 C 9.070312 -12.96875 8.375 -12.78125 7.71875 -12.40625 C 7.070312 -12.039062 6.554688 -11.484375 6.171875 -10.734375 C 5.742188 -9.890625 5.53125 -8.613281 5.53125 -6.90625 Z M 5.53125 -6.90625 "/></g></g></g><g fill="#ce7a58" fill-opacity="1"><g transform="translate(44.22205, 35.913208)"><g><path d="M 1.296875 -12.921875 C 1.097656 -12.921875 0.914062 -13.003906 0.75 -13.171875 C 0.582031 -13.335938 0.5 -13.535156 0.5 -13.765625 C 0.5 -14.359375 0.753906 -14.910156 1.265625 -15.421875 C 1.421875 -15.492188 1.726562 -15.617188 2.1875 -15.796875 C 2.644531 -15.984375 3.050781 -16.078125 3.40625 -16.078125 C 4.382812 -16.078125 5.179688 -15.8125 5.796875 -15.28125 C 6.410156 -14.757812 6.71875 -14.015625 6.71875 -13.046875 C 6.71875 -12.765625 6.664062 -12.160156 6.5625 -11.234375 C 6.457031 -10.160156 6.40625 -9.332031 6.40625 -8.75 C 6.40625 -6.957031 6.648438 -5.507812 7.140625 -4.40625 C 7.316406 -4.050781 7.59375 -3.769531 7.96875 -3.5625 C 8.351562 -3.363281 8.703125 -3.265625 9.015625 -3.265625 C 9.753906 -3.265625 10.351562 -3.390625 10.8125 -3.640625 C 11.28125 -3.898438 11.78125 -4.3125 12.3125 -4.875 C 12.851562 -5.4375 13.207031 -6.070312 13.375 -6.78125 C 13.539062 -7.5 13.660156 -8.488281 13.734375 -9.75 C 13.785156 -10.5625 13.835938 -11.160156 13.890625 -11.546875 C 14.015625 -12.773438 14.078125 -13.820312 14.078125 -14.6875 C 14.078125 -15.25 14.226562 -15.710938 14.53125 -16.078125 C 14.84375 -16.453125 15.265625 -16.640625 15.796875 -16.640625 C 16.109375 -16.640625 16.460938 -16.546875 16.859375 -16.359375 C 17.253906 -16.171875 17.515625 -15.945312 17.640625 -15.6875 C 17.796875 -15.4375 17.875 -15.015625 17.875 -14.421875 C 17.875 -14.117188 17.835938 -13.828125 17.765625 -13.546875 C 17.578125 -12.898438 17.484375 -12.128906 17.484375 -11.234375 L 17.53125 -9.25 C 17.53125 -7.425781 17.65625 -6.082031 17.90625 -5.21875 C 18.039062 -4.8125 18.222656 -4.394531 18.453125 -3.96875 C 18.679688 -3.550781 18.898438 -3.203125 19.109375 -2.921875 C 19.617188 -2.359375 19.945312 -1.96875 20.09375 -1.75 C 20.25 -1.53125 20.328125 -1.316406 20.328125 -1.109375 C 20.328125 -0.804688 20.179688 -0.519531 19.890625 -0.25 C 19.597656 0.0195312 19.285156 0.15625 18.953125 0.15625 C 18.003906 0.15625 17.179688 -0.160156 16.484375 -0.796875 C 15.796875 -1.441406 15.285156 -2.273438 14.953125 -3.296875 C 14.085938 -2.296875 13.285156 -1.488281 12.546875 -0.875 C 12.035156 -0.519531 11.40625 -0.257812 10.65625 -0.09375 C 9.914062 0.0703125 9.175781 0.15625 8.4375 0.15625 C 7.4375 0.15625 6.425781 -0.25 5.40625 -1.0625 C 4.382812 -1.882812 3.695312 -2.832031 3.34375 -3.90625 C 3.3125 -3.957031 3.238281 -4.160156 3.125 -4.515625 C 3.007812 -4.878906 2.953125 -5.421875 2.953125 -6.140625 C 2.953125 -7.085938 3.003906 -8.273438 3.109375 -9.703125 C 3.179688 -10.617188 3.21875 -11.460938 3.21875 -12.234375 C 3.21875 -12.460938 3.132812 -12.65625 2.96875 -12.8125 C 2.800781 -12.96875 2.617188 -13.046875 2.421875 -13.046875 C 2.265625 -13.046875 2.085938 -13.023438 1.890625 -12.984375 C 1.703125 -12.941406 1.503906 -12.921875 1.296875 -12.921875 Z M 1.296875 -12.921875 "/></g></g></g><g fill="#a6a6a6" fill-opacity="1"><g transform="translate(65.440173, 35.913208)"><g><path d="M 24.890625 -24.25 C 25.253906 -24.25 25.695312 -24.007812 26.21875 -23.53125 C 26.738281 -23.0625 27 -22.660156 27 -22.328125 C 27 -20.765625 26.953125 -18.628906 26.859375 -15.921875 C 26.828125 -15.253906 26.796875 -14.453125 26.765625 -13.515625 C 26.742188 -12.585938 26.734375 -11.507812 26.734375 -10.28125 C 26.734375 -6.394531 26.960938 -3.53125 27.421875 -1.6875 C 27.398438 -1.070312 27.15625 -0.628906 26.6875 -0.359375 C 26.226562 -0.0976562 25.769531 0.03125 25.3125 0.03125 C 24.289062 0.03125 23.617188 -0.320312 23.296875 -1.03125 C 22.984375 -1.75 22.828125 -2.773438 22.828125 -4.109375 C 22.828125 -9.046875 22.878906 -13.582031 22.984375 -17.71875 C 20.035156 -14.445312 17.742188 -11.695312 16.109375 -9.46875 C 16.109375 -9.46875 15.878906 -9.316406 15.421875 -9.015625 C 14.984375 -8.628906 14.625 -8.4375 14.34375 -8.4375 C 13.675781 -8.4375 13.125 -8.601562 12.6875 -8.9375 C 12.257812 -9.269531 11.84375 -9.753906 11.4375 -10.390625 L 9.59375 -13 C 8.3125 -14.789062 7.378906 -16.144531 6.796875 -17.0625 C 6.796875 -14.71875 6.910156 -11.523438 7.140625 -7.484375 C 7.316406 -5.148438 7.40625 -3.394531 7.40625 -2.21875 C 7.40625 -1.601562 7.25 -1.082031 6.9375 -0.65625 C 6.632812 -0.238281 6.148438 -0.03125 5.484375 -0.03125 C 4.816406 -0.03125 4.269531 -0.160156 3.84375 -0.421875 C 3.425781 -0.679688 3.207031 -1.066406 3.1875 -1.578125 C 3.207031 -2.003906 3.21875 -2.71875 3.21875 -3.71875 C 3.21875 -5.71875 3.15625 -8.148438 3.03125 -11.015625 L 2.953125 -13.078125 L 2.875 -15.765625 C 2.851562 -16.554688 2.828125 -17.484375 2.796875 -18.546875 C 2.773438 -19.609375 2.765625 -20.765625 2.765625 -22.015625 C 2.765625 -23.546875 3.59375 -24.3125 5.25 -24.3125 C 5.757812 -24.3125 6.273438 -24.179688 6.796875 -23.921875 C 7.328125 -23.671875 7.722656 -23.304688 7.984375 -22.828125 C 8.179688 -21.929688 8.929688 -20.445312 10.234375 -18.375 C 11.546875 -16.300781 12.828125 -14.359375 14.078125 -12.546875 C 15.203125 -13.972656 16.125 -15.046875 16.84375 -15.765625 C 18.070312 -17.015625 19.085938 -18.175781 19.890625 -19.25 C 20.691406 -20.332031 21.566406 -21.625 22.515625 -23.125 C 22.742188 -23.4375 23.078125 -23.703125 23.515625 -23.921875 C 23.953125 -24.140625 24.410156 -24.25 24.890625 -24.25 Z M 24.890625 -24.25 "/></g></g></g><g fill="#a6a6a6" fill-opacity="1"><g transform="translate(95.587525, 35.913208)"><g><path d="M 19.484375 -1.84375 C 19.484375 -1.28125 19.179688 -0.804688 18.578125 -0.421875 C 17.984375 -0.0351562 17.429688 0.15625 16.921875 0.15625 C 15.941406 0.15625 15.164062 0.0351562 14.59375 -0.203125 C 14.019531 -0.453125 13.488281 -0.910156 13 -1.578125 C 12.332031 -0.984375 11.421875 -0.539062 10.265625 -0.25 C 9.117188 0.0390625 8.0625 0.1875 7.09375 0.1875 C 5.507812 0.1875 4.207031 -0.238281 3.1875 -1.09375 C 2.164062 -1.945312 1.65625 -3.207031 1.65625 -4.875 C 1.65625 -5.59375 1.84375 -6.25 2.21875 -6.84375 C 2.601562 -7.445312 3.128906 -7.976562 3.796875 -8.4375 C 4.535156 -8.925781 5.378906 -9.300781 6.328125 -9.5625 C 7.273438 -9.832031 8.257812 -9.96875 9.28125 -9.96875 C 9.820312 -9.96875 10.460938 -9.863281 11.203125 -9.65625 C 11.941406 -9.457031 12.515625 -9.242188 12.921875 -9.015625 L 12.921875 -9.625 C 12.921875 -11.007812 12.585938 -11.960938 11.921875 -12.484375 C 11.265625 -13.003906 10.191406 -13.265625 8.703125 -13.265625 C 8.273438 -13.265625 7.847656 -13.175781 7.421875 -13 C 7.003906 -12.820312 6.523438 -12.582031 5.984375 -12.28125 C 5.265625 -11.894531 4.585938 -11.703125 3.953125 -11.703125 C 3.722656 -11.703125 3.503906 -11.859375 3.296875 -12.171875 C 3.085938 -12.492188 2.984375 -12.785156 2.984375 -13.046875 C 2.984375 -13.785156 3.335938 -14.421875 4.046875 -14.953125 C 4.753906 -15.492188 5.59375 -15.898438 6.5625 -16.171875 C 7.53125 -16.441406 8.398438 -16.578125 9.171875 -16.578125 C 9.929688 -16.578125 10.8125 -16.425781 11.8125 -16.125 C 12.8125 -15.832031 13.628906 -15.429688 14.265625 -14.921875 C 15.035156 -14.253906 15.628906 -13.476562 16.046875 -12.59375 C 16.472656 -11.71875 16.6875 -10.753906 16.6875 -9.703125 C 16.6875 -9.367188 16.660156 -8.867188 16.609375 -8.203125 C 16.554688 -7.492188 16.53125 -6.882812 16.53125 -6.375 C 16.53125 -6.132812 16.503906 -5.785156 16.453125 -5.328125 C 16.398438 -4.765625 16.375 -4.316406 16.375 -3.984375 C 16.375 -3.679688 16.488281 -3.421875 16.71875 -3.203125 C 16.945312 -2.984375 17.21875 -2.875 17.53125 -2.875 L 18.609375 -2.921875 C 18.890625 -2.921875 19.101562 -2.816406 19.25 -2.609375 C 19.40625 -2.398438 19.484375 -2.144531 19.484375 -1.84375 Z M 7.140625 -2.84375 C 8.234375 -2.84375 9.148438 -2.957031 9.890625 -3.1875 C 10.640625 -3.414062 11.535156 -3.835938 12.578125 -4.453125 C 12.679688 -4.890625 12.75 -5.460938 12.78125 -6.171875 C 11.363281 -6.835938 10.195312 -7.171875 9.28125 -7.171875 C 8.226562 -7.171875 7.289062 -6.976562 6.46875 -6.59375 C 5.65625 -6.207031 5.25 -5.53125 5.25 -4.5625 C 5.25 -4.082031 5.453125 -3.675781 5.859375 -3.34375 C 6.273438 -3.007812 6.703125 -2.84375 7.140625 -2.84375 Z M 7.140625 -2.84375 "/></g></g></g><g fill="#a6a6a6" fill-opacity="1"><g transform="translate(115.378879, 35.913208)"><g><path d="M 2.03125 -13.265625 C 1.675781 -13.316406 1.390625 -13.46875 1.171875 -13.71875 C 0.953125 -13.976562 0.84375 -14.289062 0.84375 -14.65625 C 0.84375 -14.832031 0.882812 -15.019531 0.96875 -15.21875 C 1.0625 -15.425781 1.195312 -15.609375 1.375 -15.765625 C 1.707031 -16.097656 2.601562 -16.265625 4.0625 -16.265625 C 4.269531 -17.265625 4.375 -18.273438 4.375 -19.296875 C 4.375 -19.679688 4.359375 -20.015625 4.328125 -20.296875 C 4.304688 -20.578125 4.296875 -20.789062 4.296875 -20.9375 C 4.296875 -21.5 4.503906 -21.921875 4.921875 -22.203125 C 5.347656 -22.484375 5.832031 -22.625 6.375 -22.625 C 7.03125 -22.625 7.476562 -22.457031 7.71875 -22.125 C 7.96875 -21.800781 8.09375 -21.191406 8.09375 -20.296875 C 8.09375 -18.960938 7.976562 -17.65625 7.75 -16.375 C 8.15625 -16.375 8.71875 -16.398438 9.4375 -16.453125 C 10.40625 -16.503906 11.109375 -16.53125 11.546875 -16.53125 C 11.984375 -16.53125 12.359375 -16.421875 12.671875 -16.203125 C 12.992188 -15.984375 13.15625 -15.6875 13.15625 -15.3125 C 13.15625 -14.3125 12.707031 -13.722656 11.8125 -13.546875 C 10.863281 -13.316406 9.394531 -13.175781 7.40625 -13.125 C 7.320312 -12.125 7.28125 -11.035156 7.28125 -9.859375 C 7.28125 -8.015625 7.398438 -6.503906 7.640625 -5.328125 C 7.785156 -4.515625 8.039062 -3.921875 8.40625 -3.546875 C 8.78125 -3.171875 9.34375 -2.984375 10.09375 -2.984375 C 10.519531 -2.984375 10.96875 -3.101562 11.4375 -3.34375 C 11.738281 -3.519531 12.019531 -3.609375 12.28125 -3.609375 C 12.632812 -3.609375 12.894531 -3.492188 13.0625 -3.265625 C 13.226562 -3.035156 13.3125 -2.726562 13.3125 -2.34375 C 13.3125 -1.625 12.925781 -1.023438 12.15625 -0.546875 C 11.394531 -0.078125 10.410156 0.15625 9.203125 0.15625 C 8.460938 0.15625 7.710938 -0.0195312 6.953125 -0.375 C 6.203125 -0.738281 5.570312 -1.1875 5.0625 -1.71875 C 4.988281 -1.800781 4.847656 -2.097656 4.640625 -2.609375 C 4.429688 -3.117188 4.253906 -3.671875 4.109375 -4.265625 C 3.847656 -5.460938 3.71875 -7.148438 3.71875 -9.328125 C 3.71875 -10.265625 3.769531 -11.53125 3.875 -13.125 Z M 2.03125 -13.265625 "/></g></g></g><g fill="#a6a6a6" fill-opacity="1"><g transform="translate(129.800516, 35.913208)"><g><path d="M 1.71875 -8.125 C 1.71875 -9.101562 1.894531 -10.082031 2.25 -11.0625 C 2.613281 -12.050781 3.09375 -12.953125 3.6875 -13.765625 C 4.269531 -14.585938 5.203125 -15.257812 6.484375 -15.78125 C 7.765625 -16.3125 8.898438 -16.578125 9.890625 -16.578125 C 10.921875 -16.578125 11.960938 -16.4375 13.015625 -16.15625 C 14.078125 -15.875 14.816406 -15.4375 15.234375 -14.84375 C 16.171875 -13.507812 16.640625 -12.207031 16.640625 -10.9375 C 16.640625 -10.238281 16.492188 -9.644531 16.203125 -9.15625 C 15.910156 -8.675781 15.492188 -8.15625 14.953125 -7.59375 C 14.523438 -7.132812 13.84375 -6.828125 12.90625 -6.671875 C 11.976562 -6.515625 11.050781 -6.4375 10.125 -6.4375 C 9.539062 -6.4375 8.828125 -6.492188 7.984375 -6.609375 C 7.140625 -6.734375 6.320312 -6.882812 5.53125 -7.0625 C 5.570312 -6.550781 5.695312 -6.050781 5.90625 -5.5625 C 6.113281 -5.070312 6.359375 -4.703125 6.640625 -4.453125 C 7.148438 -3.960938 7.675781 -3.65625 8.21875 -3.53125 C 8.769531 -3.40625 9.484375 -3.34375 10.359375 -3.34375 C 11.273438 -3.34375 12.128906 -3.492188 12.921875 -3.796875 C 13.566406 -4.023438 14.09375 -4.140625 14.5 -4.140625 C 14.988281 -4.140625 15.359375 -3.992188 15.609375 -3.703125 C 15.867188 -3.410156 16 -3.03125 16 -2.5625 C 16 -1.925781 15.625 -1.40625 14.875 -1 C 14.132812 -0.59375 13.285156 -0.289062 12.328125 -0.09375 C 11.367188 0.0898438 10.597656 0.1875 10.015625 0.1875 C 8.804688 0.1875 7.640625 -0.0234375 6.515625 -0.453125 C 5.390625 -0.890625 4.457031 -1.503906 3.71875 -2.296875 C 3.101562 -3.015625 2.613281 -3.878906 2.25 -4.890625 C 1.894531 -5.898438 1.71875 -6.976562 1.71875 -8.125 Z M 10.09375 -13.3125 C 9.53125 -13.3125 8.96875 -13.203125 8.40625 -12.984375 C 7.84375 -12.765625 7.378906 -12.460938 7.015625 -12.078125 C 6.554688 -11.597656 6.242188 -11.207031 6.078125 -10.90625 C 5.910156 -10.613281 5.800781 -10.210938 5.75 -9.703125 C 6.394531 -9.492188 7.726562 -9.390625 9.75 -9.390625 C 10.84375 -9.390625 11.691406 -9.554688 12.296875 -9.890625 C 12.898438 -10.222656 13.203125 -10.660156 13.203125 -11.203125 C 13.203125 -11.734375 12.867188 -12.21875 12.203125 -12.65625 C 11.535156 -13.09375 10.832031 -13.3125 10.09375 -13.3125 Z M 10.09375 -13.3125 "/></g></g></g></svg>